<?xml version="1.0" standalone="no"?>
<!DOCTYPE svg PUBLIC "-//W3C//DTD SVG 20010904//EN"
 "http://www.w3.org/TR/2001/REC-SVG-20010904/DTD/svg10.dtd">
<svg version="1.0" xmlns="http://www.w3.org/2000/svg"
 width="612.000000pt" height="612.000000pt" viewBox="0 0 612.000000 612.000000"
 preserveAspectRatio="xMidYMid meet">
<metadata>
Created by potrace 1.14, written by Peter Selinger 2001-2017
</metadata>
<g transform="translate(0.000000,612.000000) scale(0.100000,-0.100000)"
fill="#000000" stroke="none">
<path d="M1493 6057 l-133 -20 1 -56 c0 -31 44 -1338 97 -2905 l97 -2849 147
-63 147 -62 133 33 c236 58 552 134 573 138 11 1 25 5 30 8 6 4 18 5 28 4 9
-2 17 1 17 6 0 5 11 7 25 5 13 -3 27 0 31 5 3 6 13 8 21 5 8 -3 20 -3 26 1 7
4 15 8 20 9 4 1 8 3 10 4 1 1 13 3 27 4 14 1 31 5 38 9 6 5 17 5 24 1 7 -5 8
-3 3 6 -5 9 -2 10 13 6 11 -4 23 -2 26 3 4 6 14 7 23 4 12 -5 14 -3 8 8 -7 11
-5 11 10 -1 10 -8 16 -10 12 -4 -10 16 18 25 33 11 9 -9 11 -9 7 -1 -4 7 0 15
9 18 12 5 15 2 10 -10 -5 -13 -3 -14 6 -7 7 6 23 9 36 7 12 -2 22 0 22 5 0 6
-10 8 -21 6 -12 -3 -19 -1 -15 2 4 4 12 8 19 9 7 2 22 5 35 8 12 3 22 1 22 -3
0 -4 7 -8 15 -8 10 0 12 4 5 12 -7 8 -5 12 5 12 8 0 15 -3 15 -7 0 -3 10 -6
21 -7 21 -2 21 -1 3 12 -14 10 -15 13 -4 12 8 -2 20 -5 25 -8 10 -7 19 -6 70
6 17 4 40 7 52 8 12 1 20 4 17 8 -2 4 -13 6 -24 4 -11 -2 -20 1 -20 7 0 5 6 8
14 5 7 -3 19 0 26 6 9 9 11 9 7 1 -8 -14 24 -29 32 -16 3 5 16 8 29 7 13 -1
25 2 28 7 3 5 15 6 27 3 18 -5 19 -4 6 4 -9 6 -27 8 -40 5 -13 -3 -28 -6 -34
-7 -5 -2 -16 -6 -22 -10 -8 -5 -13 -4 -13 2 0 6 3 11 8 12 4 0 16 3 27 5 11 3
31 6 45 8 14 1 31 5 38 10 14 8 46 17 82 21 14 2 26 4 28 5 1 2 7 4 12 5 6 1
11 3 13 5 4 3 40 11 67 15 14 1 25 4 25 5 0 9 37 5 45 -5 9 -11 7 -14 -9 -12
-12 1 -21 5 -21 10 0 5 -6 4 -13 -2 -8 -6 -17 -8 -21 -4 -4 4 -4 -1 0 -11 4
-10 10 -13 13 -8 3 5 19 9 35 8 21 -1 30 4 32 17 1 9 -2 15 -7 11 -5 -3 -9 0
-9 6 0 7 7 10 15 7 8 -4 17 -2 20 3 3 5 17 7 31 4 14 -3 23 -1 21 4 -3 4 2 8
11 9 18 1 57 10 57 13 0 3 41 11 57 11 10 0 20 4 23 9 3 5 17 7 31 4 16 -3 23
-1 19 6 -3 5 0 7 8 4 8 -3 18 0 22 5 3 6 11 9 16 5 5 -3 15 -1 22 4 7 5 20 8
30 7 9 -2 17 1 17 5 0 5 8 9 18 9 51 2 72 6 72 12 0 4 8 8 18 8 23 0 44 5 60
14 6 5 16 6 21 2 5 -3 12 -1 15 4 4 5 18 8 32 5 16 -3 23 -1 19 6 -3 5 -1 10
4 10 11 0 10 -27 -1 -46 -4 -6 -1 -11 7 -11 8 0 11 5 8 10 -4 6 1 8 11 4 10
-4 19 -1 22 7 5 14 28 16 40 3 14 -13 22 -7 20 16 0 13 -6 24 -13 24 -6 0 -9
-7 -6 -16 4 -14 4 -14 -6 -1 -9 12 -11 13 -11 1 0 -8 -3 -12 -6 -8 -3 3 -17 2
-30 -3 -23 -9 -24 -8 -14 11 8 14 17 18 31 14 11 -4 19 -2 19 5 0 7 6 10 14 7
8 -3 17 -3 20 1 4 3 12 7 19 8 7 1 20 5 30 9 10 4 17 3 17 -4 0 -6 4 -11 10
-11 5 0 9 6 7 13 -1 6 5 12 13 12 8 0 21 4 28 8 6 5 16 6 21 2 5 -3 12 -1 16
5 3 5 12 10 18 10 7 0 6 -4 -3 -11 -10 -7 -11 -9 -2 -7 11 3 13 45 13 203 -2
522 -53 4961 -57 4965 -6 5 -2848 129 -2944 128 -36 0 -125 -10 -197 -21z
m1766 -5621 c-10 -10 -59 -14 -54 -5 4 5 10 7 14 5 4 -3 13 -1 21 4 14 8 28 5
19 -4z"/>
<path d="M4624 769 c-2 -5 -12 -6 -22 -3 -13 5 -14 4 -4 -4 11 -7 10 -10 -3
-16 -10 -3 -23 -2 -29 3 -7 6 -18 6 -26 1 -8 -5 -17 -7 -21 -4 -13 7 -3 -26
11 -39 10 -10 11 -9 6 1 -6 9 -1 11 18 8 18 -3 24 -1 20 6 -5 8 -1 9 10 5 9
-4 15 -3 12 2 -3 5 1 11 9 15 8 3 17 1 20 -4 3 -4 -1 -10 -7 -13 -7 -3 -3 -4
9 -4 12 1 20 5 17 9 -3 4 8 14 23 22 15 8 24 16 18 16 -45 6 -56 6 -61 -1z
m20 -20 c-3 -5 -10 -7 -15 -3 -5 3 -7 10 -3 15 3 5 10 7 15 3 5 -3 7 -10 3
-15z m-79 -17 c-3 -3 -15 -6 -27 -7 -20 -2 -20 -1 -3 11 17 13 43 9 30 -4z"/>
<path d="M4666 742 c-3 -5 1 -9 9 -9 8 0 15 4 15 9 0 4 -4 8 -9 8 -6 0 -12 -4
-15 -8z"/>
<path d="M4344 699 c-3 -5 -12 -8 -19 -7 -8 2 -21 -6 -29 -17 -10 -13 -15 -15
-13 -5 2 8 2 12 0 7 -3 -4 -9 -5 -14 -2 -5 4 -6 -2 -2 -12 5 -15 3 -16 -8 -5
-19 17 -32 15 -25 -5 5 -15 4 -15 -9 1 -8 11 -15 15 -15 9 0 -6 -14 -9 -30 -8
-20 2 -34 -3 -40 -14 -7 -12 -9 -13 -10 -2 0 11 -4 9 -15 -5 -15 -19 -15 -19
-9 1 5 19 5 19 -6 2 -9 -14 -15 -16 -26 -6 -12 10 -13 9 -9 -3 5 -11 0 -15
-16 -14 -12 0 -24 -6 -26 -14 -4 -13 -3 -13 6 0 10 13 11 13 11 0 0 -9 3 -11
8 -5 4 6 18 12 32 14 14 2 30 4 35 5 6 1 16 5 23 10 7 4 19 5 27 2 10 -3 12 0
8 12 -5 13 -4 15 8 6 12 -8 53 -12 62 -4 2 2 23 7 47 12 8 2 20 7 26 10 6 4
21 6 33 3 13 -2 25 3 31 16 6 10 9 19 8 20 -24 6 -39 5 -44 -2z m29 -17 c-5
-11 -7 -11 -14 0 -7 11 -9 10 -9 -1 0 -8 -3 -12 -6 -8 -9 9 3 24 20 24 8 0 12
-6 9 -15z m-62 -15 c-10 -9 -11 -8 -5 6 3 10 9 15 12 12 3 -3 0 -11 -7 -18z"/>
<path d="M3968 603 c-9 -11 -13 -12 -19 -1 -6 9 -9 9 -9 1 0 -6 -8 -10 -17 -9
-10 2 -29 -4 -43 -13 -13 -9 -25 -15 -27 -13 -9 7 -23 0 -17 -9 4 -8 9 -7 15
2 7 11 9 11 9 -1 0 -9 3 -11 8 -5 4 6 16 17 26 25 18 14 19 13 13 -4 -7 -17
-6 -18 17 -3 18 12 26 13 29 4 4 -9 6 -9 6 0 1 7 11 10 25 7 19 -3 24 0 23 14
-1 22 -23 24 -39 5z m26 -1 c3 -5 -1 -9 -9 -9 -8 0 -12 4 -9 9 3 4 7 8 9 8 2
0 6 -4 9 -8z"/>
<path d="M3777 556 c-4 -11 -5 -21 -2 -24 3 -3 5 -1 5 5 0 6 11 9 26 7 21 -2
23 0 13 12 -13 16 -23 19 -14 4 3 -5 2 -10 -4 -10 -5 0 -11 5 -13 12 -3 7 -7
5 -11 -6z"/>
<path d="M3644 525 c-4 -9 -4 -19 0 -22 3 -4 6 2 6 13 0 16 2 17 10 4 6 -9 10
-10 10 -3 0 19 -20 26 -26 8z"/>
<path d="M3610 520 c0 -6 -7 -10 -16 -8 -10 2 -19 -2 -21 -9 -3 -7 4 -11 16
-10 12 1 21 5 21 10 0 4 4 5 10 2 6 -3 7 1 4 9 -7 18 -14 21 -14 6z"/>
<path d="M3528 505 c-3 -3 -16 -8 -28 -10 -28 -5 -34 -11 -21 -20 6 -3 11 0
11 7 0 9 3 9 10 -2 7 -11 10 -11 10 -2 0 7 8 12 18 10 11 -2 20 1 21 7 3 11
-12 18 -21 10z"/>
</g>
</svg>
